# xmcd
#
# Track frame offsets:
#	150
#	13219
#	27592
#	45870
#	59670
#	76676
#	88614
#	102428
#	115138
#	137027
#	148197
#
# Disc length: 2144 seconds
#
# Revision: 0
# Processed by: cddbd v1.5.1PL0 Copyright (c) Steve Scherf et al.
# Submitted via: audiograbber 1.83.01
#
DISCID=92085e0b
DTITLE=Tucker, Tanya - Greatest Country Hits - Tucker, Tanya - Greatest Country
DTITLE=Hits
DYEAR=1900
DGENRE=Country
TTITLE0=One Love At a Time
TTITLE1=Just Another Love
TTITLE2=I'll Come Back As Another Woman
TTITLE3=It's Only For You
TTITLE4=Love Me Like You Used To
TTITLE5=Walking Shoes
TTITLE6=Lizzie and the Rainman
TTITLE7=San Antonio Stroll
TTITLE8=Texas When I Die
TTITLE9=Pecos Promenade
TTITLE10=Can I See You Tonight
EXTD=
EXTT0=
EXTT1=
EXTT2=
EXTT3=
EXTT4=
EXTT5=
EXTT6=
EXTT7=
EXTT8=
EXTT9=
EXTT10=
PLAYORDER=
